<svg id="Group_1_copy" data-name="Group 1 copy" xmlns="http://www.w3.org/2000/svg" width="385" height="385" viewBox="0 0 385 385">
  <defs>
    <style>
      .cls-1 {
        fill: #fff;
        fill-rule: evenodd;
      }
    </style>
  </defs>
  <rect width="385" height="385" rx="18" ry="18"/>
  <path id="Color_Fill_1" data-name="Color Fill 1" class="cls-1" d="M438,266H605V397c-12.5,4.172-34.386,1.085-49,1-1.893-5.71-1-15.637-1-23V323H494v88l111,1V614c-42.81,0-59.184.645-68-2s-27.57-8.475-35-13c-36.563-22.269-64.256-56.859-64-116l56-1c-0.5,41.072,24.649,71.05,61,75V468l-117,1V266Zm181,0s43.592-3.322,61,1c49.3,12.243,83.588,40.154,100,85,8.739,23.88,6,92,6,92V614H730l-1-145H676l-1,145H619V266Zm56,59c0.813,49.755,0,87,0,87h54V382C722.729,356.832,703.255,326.974,675,325Z" transform="translate(-420 -247)"/>
</svg>
