<svg xmlns="http://www.w3.org/2000/svg" width="348.406" height="349.281" viewBox="0 0 348.406 349.281">
  <defs>
    <style>
      .cls-1 {
        fill: #fff;
        fill-rule: evenodd;
      }
    </style>
  </defs>
  <path id="Color_Fill_1" data-name="Color Fill 1" class="cls-1" d="M430,258H597V389c-12.5,4.172-34.386,1.085-49,1-1.893-5.71-1-15.637-1-23V315H486v88l111,1V606c-42.81,0-59.184.645-68-2s-27.57-8.475-35-13c-36.563-22.269-64.256-56.859-64-116l56-1c-0.5,41.072,24.649,71.05,61,75V460l-117,1V258Zm181,0s43.592-3.322,61,1c49.3,12.243,83.588,40.154,100,85,8.739,23.88,6,92,6,92V606H722l-1-145H668l-1,145H611V258Zm56,59c0.813,49.755,0,87,0,87h54V374C714.729,348.832,695.255,318.974,667,317Z" transform="translate(-430 -256.781)"/>
</svg>
